<mxfile host="65bd71144e">
    <diagram id="-ezNBa-ZIM8mcF6l0Uv7" name="Page-1">
        <mxGraphModel dx="871" dy="636" grid="1" gridSize="10" guides="1" tooltips="1" connect="1" arrows="1" fold="1" page="1" pageScale="1" pageWidth="850" pageHeight="1100" math="0" shadow="0">
            <root>
                <mxCell id="0"/>
                <mxCell id="1" parent="0"/>
                <mxCell id="2" value="main.py" style="swimlane;whiteSpace=wrap;html=1;startSize=20;" parent="1" vertex="1">
                    <mxGeometry x="150" y="170" width="320" height="70" as="geometry"/>
                </mxCell>
                <mxCell id="44" value="Main logic of system" style="text;html=1;strokeColor=none;fillColor=none;align=center;verticalAlign=middle;whiteSpace=wrap;rounded=0;fontStyle=1" parent="2" vertex="1">
                    <mxGeometry y="20" width="320" height="60" as="geometry"/>
                </mxCell>
                <mxCell id="3" value="speech_recognition.py" style="swimlane;fontStyle=0;childLayout=stackLayout;horizontal=1;startSize=30;horizontalStack=0;resizeParent=1;resizeParentMax=0;resizeLast=0;collapsible=1;marginBottom=0;whiteSpace=wrap;html=1;" parent="1" vertex="1">
                    <mxGeometry x="125" y="300" width="370" height="250" as="geometry"/>
                </mxCell>
                <mxCell id="4" value="&lt;div style=&quot;color: rgb(51, 51, 51); background-color: rgb(253, 246, 227); font-family: Consolas, &amp;quot;Courier New&amp;quot;, monospace; font-size: 14px; line-height: 19px;&quot;&gt;&lt;span style=&quot;color: #268bd2;&quot;&gt;recognize&lt;/span&gt;&lt;span style=&quot;color: #2aa198;&quot;&gt;(&lt;/span&gt;&lt;span style=&quot;color: #cb4b16;&quot;&gt;templates&lt;/span&gt;&lt;span style=&quot;color: #2aa198;&quot;&gt;,&lt;/span&gt; &lt;span style=&quot;color: #cb4b16;&quot;&gt;mode&lt;/span&gt;&lt;span style=&quot;color: #2aa198;&quot;&gt;)&lt;/span&gt;&lt;/div&gt;" style="text;strokeColor=none;fillColor=none;align=left;verticalAlign=middle;spacingLeft=4;spacingRight=4;overflow=hidden;points=[[0,0.5],[1,0.5]];portConstraint=eastwest;rotatable=0;whiteSpace=wrap;html=1;" parent="3" vertex="1">
                    <mxGeometry y="30" width="370" height="30" as="geometry"/>
                </mxCell>
                <mxCell id="5" value="&lt;div style=&quot;color: rgb(51, 51, 51); background-color: rgb(253, 246, 227); font-family: Consolas, &amp;quot;Courier New&amp;quot;, monospace; font-size: 14px; line-height: 19px;&quot;&gt;&lt;span style=&quot;color: #268bd2;&quot;&gt;training&lt;/span&gt;&lt;span style=&quot;color: #2aa198;&quot;&gt;(&lt;/span&gt;&lt;span style=&quot;color: #cb4b16;&quot;&gt;keywords&lt;/span&gt;&lt;span style=&quot;color: #2aa198;&quot;&gt;,&lt;/span&gt; &lt;span style=&quot;color: #cb4b16;&quot;&gt;commandos&lt;/span&gt;&lt;span style=&quot;color: #2aa198;&quot;&gt;,&lt;/span&gt; &lt;span style=&quot;color: #cb4b16;&quot;&gt;mode&lt;/span&gt;&lt;span style=&quot;color: #2aa198;&quot;&gt;)&lt;/span&gt;&lt;/div&gt;" style="text;strokeColor=none;fillColor=none;align=left;verticalAlign=middle;spacingLeft=4;spacingRight=4;overflow=hidden;points=[[0,0.5],[1,0.5]];portConstraint=eastwest;rotatable=0;whiteSpace=wrap;html=1;" parent="3" vertex="1">
                    <mxGeometry y="60" width="370" height="30" as="geometry"/>
                </mxCell>
                <mxCell id="6" value="&lt;div style=&quot;color: rgb(51, 51, 51); background-color: rgb(253, 246, 227); font-family: Consolas, &amp;quot;Courier New&amp;quot;, monospace; font-size: 14px; line-height: 19px;&quot;&gt;&lt;span style=&quot;color: #268bd2;&quot;&gt;recognize_prerecorded&lt;/span&gt;&lt;span style=&quot;color: #2aa198;&quot;&gt;(&lt;/span&gt;&lt;span style=&quot;color: #cb4b16;&quot;&gt;mode&lt;/span&gt;&lt;span style=&quot;color: #2aa198;&quot;&gt;,&lt;/span&gt; &lt;span style=&quot;color: #cb4b16;&quot;&gt;metric&lt;/span&gt;&lt;span style=&quot;color: #2aa198;&quot;&gt;=(&lt;/span&gt;&lt;span style=&quot;color: #6c71c4;&quot;&gt;lambda&lt;/span&gt; &lt;span style=&quot;color: #cb4b16;&quot;&gt;x&lt;/span&gt;&lt;span style=&quot;color: #2aa198;&quot;&gt;,&lt;/span&gt; &lt;span style=&quot;color: #cb4b16;&quot;&gt;y&lt;/span&gt;&lt;span style=&quot;color: #2aa198;&quot;&gt;:&lt;/span&gt; &lt;span style=&quot;color: #268bd2;&quot;&gt;norm&lt;/span&gt;&lt;span style=&quot;color: #2aa198;&quot;&gt;(&lt;/span&gt;&lt;span style=&quot;color: #cb4b16;&quot;&gt;x&lt;/span&gt; &lt;span style=&quot;color: #2aa198;&quot;&gt;-&lt;/span&gt; &lt;span style=&quot;color: #cb4b16;&quot;&gt;y&lt;/span&gt;&lt;span style=&quot;color: #2aa198;&quot;&gt;,&lt;/span&gt; &lt;span style=&quot;color: #cb4b16;&quot;&gt;ord&lt;/span&gt;&lt;span style=&quot;color: #2aa198;&quot;&gt;=&lt;/span&gt;&lt;span style=&quot;color: #cb4b16;&quot;&gt;1&lt;/span&gt;&lt;span style=&quot;color: #2aa198;&quot;&gt;)))&lt;/span&gt;&lt;/div&gt;" style="text;strokeColor=none;fillColor=none;align=left;verticalAlign=middle;spacingLeft=4;spacingRight=4;overflow=hidden;points=[[0,0.5],[1,0.5]];portConstraint=eastwest;rotatable=0;whiteSpace=wrap;html=1;" parent="3" vertex="1">
                    <mxGeometry y="90" width="370" height="60" as="geometry"/>
                </mxCell>
                <mxCell id="41" value="&lt;div style=&quot;color: rgb(51, 51, 51); background-color: rgb(253, 246, 227); font-family: Consolas, &amp;quot;Courier New&amp;quot;, monospace; font-size: 14px; line-height: 19px;&quot;&gt;&lt;span style=&quot;color: #268bd2;&quot;&gt;recognize_prerecorded_ml&lt;/span&gt;&lt;span style=&quot;color: #2aa198;&quot;&gt;(&lt;/span&gt;&lt;span style=&quot;color: #cb4b16;&quot;&gt;mode&lt;/span&gt;&lt;span style=&quot;color: #2aa198;&quot;&gt;,&lt;/span&gt; &lt;span style=&quot;color: #cb4b16;&quot;&gt;dataset&lt;/span&gt;&lt;span style=&quot;color: #2aa198;&quot;&gt;=&lt;/span&gt;&lt;span style=&quot;color: #2aa198;&quot;&gt;'&lt;/span&gt;&lt;span style=&quot;color: #859900;&quot;&gt;open_source&lt;/span&gt;&lt;span style=&quot;color: #2aa198;&quot;&gt;'&lt;/span&gt;&lt;span style=&quot;color: #2aa198;&quot;&gt;)&lt;/span&gt;&lt;/div&gt;" style="text;strokeColor=none;fillColor=none;align=left;verticalAlign=middle;spacingLeft=4;spacingRight=4;overflow=hidden;points=[[0,0.5],[1,0.5]];portConstraint=eastwest;rotatable=0;whiteSpace=wrap;html=1;" parent="3" vertex="1">
                    <mxGeometry y="150" width="370" height="50" as="geometry"/>
                </mxCell>
                <mxCell id="42" value="Recognition and training logic" style="text;strokeColor=none;fillColor=none;align=center;verticalAlign=middle;spacingLeft=4;spacingRight=4;overflow=hidden;points=[[0,0.5],[1,0.5]];portConstraint=eastwest;rotatable=0;whiteSpace=wrap;html=1;fontStyle=1;labelBackgroundColor=none;" parent="3" vertex="1">
                    <mxGeometry y="200" width="370" height="50" as="geometry"/>
                </mxCell>
                <mxCell id="7" value="record_process_audio.py" style="swimlane;fontStyle=0;childLayout=stackLayout;horizontal=1;startSize=30;horizontalStack=0;resizeParent=1;resizeParentMax=0;resizeLast=0;collapsible=1;marginBottom=0;whiteSpace=wrap;html=1;" parent="1" vertex="1">
                    <mxGeometry x="100" y="630" width="190" height="90" as="geometry"/>
                </mxCell>
                <mxCell id="8" value="&lt;div style=&quot;color: rgb(51, 51, 51); background-color: rgb(253, 246, 227); font-family: Consolas, &amp;quot;Courier New&amp;quot;, monospace; font-size: 14px; line-height: 19px;&quot;&gt;&lt;span style=&quot;color: #268bd2;&quot;&gt;record_process_audio&lt;/span&gt;&lt;span style=&quot;color: #2aa198;&quot;&gt;()&lt;/span&gt;&lt;/div&gt;" style="text;strokeColor=none;fillColor=none;align=left;verticalAlign=middle;spacingLeft=4;spacingRight=4;overflow=hidden;points=[[0,0.5],[1,0.5]];portConstraint=eastwest;rotatable=0;whiteSpace=wrap;html=1;" parent="7" vertex="1">
                    <mxGeometry y="30" width="190" height="30" as="geometry"/>
                </mxCell>
                <mxCell id="9" value="Recording logic" style="text;strokeColor=none;fillColor=none;align=center;verticalAlign=middle;spacingLeft=4;spacingRight=4;overflow=hidden;points=[[0,0.5],[1,0.5]];portConstraint=eastwest;rotatable=0;whiteSpace=wrap;html=1;fontStyle=1" parent="7" vertex="1">
                    <mxGeometry y="60" width="190" height="30" as="geometry"/>
                </mxCell>
                <mxCell id="15" value="helperf.py" style="swimlane;fontStyle=0;childLayout=stackLayout;horizontal=1;startSize=30;horizontalStack=0;resizeParent=1;resizeParentMax=0;resizeLast=0;collapsible=1;marginBottom=0;whiteSpace=wrap;html=1;" parent="1" vertex="1">
                    <mxGeometry x="20" y="780" width="580" height="210" as="geometry"/>
                </mxCell>
                <mxCell id="16" value="&lt;div style=&quot;color: rgb(51, 51, 51); background-color: rgb(253, 246, 227); font-family: Consolas, &amp;quot;Courier New&amp;quot;, monospace; font-size: 14px; line-height: 19px;&quot;&gt;&lt;span style=&quot;color: #268bd2;&quot;&gt;applyFilter&lt;/span&gt;&lt;span style=&quot;color: #2aa198;&quot;&gt;(&lt;/span&gt;&lt;span style=&quot;color: #cb4b16;&quot;&gt;ein&lt;/span&gt;&lt;span style=&quot;color: #2aa198;&quot;&gt;,&lt;/span&gt; &lt;span style=&quot;color: #cb4b16;&quot;&gt;win_han&lt;/span&gt;&lt;span style=&quot;color: #2aa198;&quot;&gt;,&lt;/span&gt; &lt;span style=&quot;color: #cb4b16;&quot;&gt;lp&lt;/span&gt;&lt;span style=&quot;color: #2aa198;&quot;&gt;,&lt;/span&gt; &lt;span style=&quot;color: #cb4b16;&quot;&gt;hp&lt;/span&gt;&lt;span style=&quot;color: #2aa198;&quot;&gt;)&lt;/span&gt;&lt;/div&gt;" style="text;strokeColor=none;fillColor=none;align=left;verticalAlign=middle;spacingLeft=4;spacingRight=4;overflow=hidden;points=[[0,0.5],[1,0.5]];portConstraint=eastwest;rotatable=0;whiteSpace=wrap;html=1;" parent="15" vertex="1">
                    <mxGeometry y="30" width="580" height="30" as="geometry"/>
                </mxCell>
                <mxCell id="17" value="&lt;div style=&quot;color: rgb(51, 51, 51); background-color: rgb(253, 246, 227); font-family: Consolas, &amp;quot;Courier New&amp;quot;, monospace; font-size: 14px; line-height: 19px;&quot;&gt;&lt;span style=&quot;color: #268bd2;&quot;&gt;applyFFT&lt;/span&gt;&lt;span style=&quot;color: #2aa198;&quot;&gt;(&lt;/span&gt;&lt;span style=&quot;color: #cb4b16;&quot;&gt;data_int&lt;/span&gt;&lt;span style=&quot;color: #2aa198;&quot;&gt;,&lt;/span&gt; &lt;span style=&quot;color: #cb4b16;&quot;&gt;RATE&lt;/span&gt;&lt;span style=&quot;color: #2aa198;&quot;&gt;,&lt;/span&gt; &lt;span style=&quot;color: #cb4b16;&quot;&gt;win_han&lt;/span&gt;&lt;span style=&quot;color: #2aa198;&quot;&gt;,&lt;/span&gt; &lt;span style=&quot;color: #cb4b16;&quot;&gt;lp&lt;/span&gt;&lt;span style=&quot;color: #2aa198;&quot;&gt;,&lt;/span&gt; &lt;span style=&quot;color: #cb4b16;&quot;&gt;hp&lt;/span&gt;&lt;span style=&quot;color: #2aa198;&quot;&gt;)&lt;/span&gt;&lt;/div&gt;" style="text;strokeColor=none;fillColor=none;align=left;verticalAlign=middle;spacingLeft=4;spacingRight=4;overflow=hidden;points=[[0,0.5],[1,0.5]];portConstraint=eastwest;rotatable=0;whiteSpace=wrap;html=1;" parent="15" vertex="1">
                    <mxGeometry y="60" width="580" height="30" as="geometry"/>
                </mxCell>
                <mxCell id="18" value="&lt;div style=&quot;color: rgb(51, 51, 51); background-color: rgb(253, 246, 227); font-family: Consolas, &amp;quot;Courier New&amp;quot;, monospace; font-size: 14px; line-height: 19px;&quot;&gt;&lt;span style=&quot;color: #268bd2;&quot;&gt;volumeFilter&lt;/span&gt;&lt;span style=&quot;color: #2aa198;&quot;&gt;(&lt;/span&gt;&lt;span style=&quot;color: #cb4b16;&quot;&gt;data_raw&lt;/span&gt;&lt;span style=&quot;color: #2aa198;&quot;&gt;)&lt;/span&gt;&lt;/div&gt;" style="text;strokeColor=none;fillColor=none;align=left;verticalAlign=middle;spacingLeft=4;spacingRight=4;overflow=hidden;points=[[0,0.5],[1,0.5]];portConstraint=eastwest;rotatable=0;whiteSpace=wrap;html=1;" parent="15" vertex="1">
                    <mxGeometry y="90" width="580" height="30" as="geometry"/>
                </mxCell>
                <mxCell id="45" value="&lt;div style=&quot;background-color: rgb(253, 246, 227); font-family: Consolas, &amp;quot;Courier New&amp;quot;, monospace; font-size: 14px; line-height: 19px;&quot;&gt;&lt;span style=&quot;color: rgb(38, 139, 210);&quot;&gt;extractFeatures&lt;/span&gt;&lt;span style=&quot;color: rgb(42, 161, 152);&quot;&gt;(&lt;/span&gt;&lt;span style=&quot;color: rgb(203, 75, 22);&quot;&gt;fft_norm&lt;/span&gt;&lt;span style=&quot;color: rgb(42, 161, 152);&quot;&gt;,&lt;/span&gt;&amp;nbsp;&lt;span style=&quot;color: rgb(203, 75, 22);&quot;&gt;hf_range&lt;/span&gt;&lt;span style=&quot;color: rgb(42, 161, 152);&quot;&gt;,&lt;/span&gt;&lt;font color=&quot;#333333&quot;&gt;&amp;nbsp;&lt;/font&gt;&lt;span style=&quot;color: rgb(203, 75, 22);&quot;&gt;lf_range&lt;/span&gt;&lt;span style=&quot;color: rgb(42, 161, 152);&quot;&gt;,&lt;/span&gt;&lt;span style=&quot;color: rgb(203, 75, 22);&quot;&gt;vol_tres&lt;/span&gt;&lt;span style=&quot;color: rgb(42, 161, 152);&quot;&gt;,&lt;/span&gt; &lt;span style=&quot;color: rgb(203, 75, 22);&quot;&gt;mode&lt;/span&gt;&lt;span style=&quot;color: rgb(42, 161, 152);&quot;&gt;=&lt;/span&gt;&lt;span style=&quot;color: rgb(42, 161, 152);&quot;&gt;&quot;&lt;/span&gt;&lt;span style=&quot;color: rgb(133, 153, 0);&quot;&gt;on-off-set&lt;/span&gt;&lt;span style=&quot;color: rgb(42, 161, 152);&quot;&gt;&quot;&lt;/span&gt;&lt;span style=&quot;color: rgb(42, 161, 152);&quot;&gt;)&lt;/span&gt;&lt;/div&gt;" style="text;strokeColor=none;fillColor=none;align=left;verticalAlign=middle;spacingLeft=4;spacingRight=4;overflow=hidden;points=[[0,0.5],[1,0.5]];portConstraint=eastwest;rotatable=0;whiteSpace=wrap;html=1;" parent="15" vertex="1">
                    <mxGeometry y="120" width="580" height="30" as="geometry"/>
                </mxCell>
                <mxCell id="46" value="&lt;div style=&quot;color: rgb(51, 51, 51); background-color: rgb(253, 246, 227); font-family: Consolas, &amp;quot;Courier New&amp;quot;, monospace; font-size: 14px; line-height: 19px;&quot;&gt;&lt;span style=&quot;color: #268bd2;&quot;&gt;process_signal&lt;/span&gt;&lt;span style=&quot;color: #2aa198;&quot;&gt;(&lt;/span&gt;&lt;span style=&quot;color: #cb4b16;&quot;&gt;audio&lt;/span&gt;&lt;span style=&quot;color: #2aa198;&quot;&gt;,&lt;/span&gt; &lt;span style=&quot;color: #cb4b16;&quot;&gt;sampling_freq&lt;/span&gt;&lt;span style=&quot;color: #2aa198;&quot;&gt;,&lt;/span&gt; &lt;span style=&quot;color: #cb4b16;&quot;&gt;mode&lt;/span&gt;&lt;span style=&quot;color: #2aa198;&quot;&gt;)&lt;/span&gt;&lt;/div&gt;" style="text;strokeColor=none;fillColor=none;align=left;verticalAlign=middle;spacingLeft=4;spacingRight=4;overflow=hidden;points=[[0,0.5],[1,0.5]];portConstraint=eastwest;rotatable=0;whiteSpace=wrap;html=1;" parent="15" vertex="1">
                    <mxGeometry y="150" width="580" height="30" as="geometry"/>
                </mxCell>
                <mxCell id="48" value="Basic processing funktions" style="text;strokeColor=none;fillColor=none;align=center;verticalAlign=middle;spacingLeft=4;spacingRight=4;overflow=hidden;points=[[0,0.5],[1,0.5]];portConstraint=eastwest;rotatable=0;whiteSpace=wrap;html=1;fontStyle=1" parent="15" vertex="1">
                    <mxGeometry y="180" width="580" height="30" as="geometry"/>
                </mxCell>
                <mxCell id="27" value="" style="endArrow=classic;html=1;entryX=0.5;entryY=1;entryDx=0;entryDy=0;exitX=0.5;exitY=0;exitDx=0;exitDy=0;" parent="1" source="3" target="2" edge="1">
                    <mxGeometry width="50" height="50" relative="1" as="geometry">
                        <mxPoint x="290" y="450" as="sourcePoint"/>
                        <mxPoint x="340" y="400" as="targetPoint"/>
                    </mxGeometry>
                </mxCell>
                <mxCell id="30" value="" style="endArrow=classic;html=1;exitX=0.5;exitY=0;exitDx=0;exitDy=0;entryX=0.365;entryY=1.024;entryDx=0;entryDy=0;entryPerimeter=0;" parent="1" source="7" target="42" edge="1">
                    <mxGeometry width="50" height="50" relative="1" as="geometry">
                        <mxPoint x="290" y="450" as="sourcePoint"/>
                        <mxPoint x="200" y="520" as="targetPoint"/>
                    </mxGeometry>
                </mxCell>
                <mxCell id="33" value="" style="endArrow=classic;html=1;exitX=0.5;exitY=0;exitDx=0;exitDy=0;entryX=0.555;entryY=1.01;entryDx=0;entryDy=0;entryPerimeter=0;" parent="1" source="15" target="9" edge="1">
                    <mxGeometry width="50" height="50" relative="1" as="geometry">
                        <mxPoint x="290" y="650" as="sourcePoint"/>
                        <mxPoint x="120" y="750" as="targetPoint"/>
                    </mxGeometry>
                </mxCell>
                <mxCell id="49" value="" style="endArrow=classic;html=1;exitX=0.5;exitY=0;exitDx=0;exitDy=0;entryX=0.5;entryY=1;entryDx=0;entryDy=0;entryPerimeter=0;" parent="1" source="15" target="42" edge="1">
                    <mxGeometry width="50" height="50" relative="1" as="geometry">
                        <mxPoint x="420" y="750" as="sourcePoint"/>
                        <mxPoint x="470" y="700" as="targetPoint"/>
                    </mxGeometry>
                </mxCell>
            </root>
        </mxGraphModel>
    </diagram>
</mxfile>